<svg width="360" height="162" viewBox="0 0 360 162" fill="none" xmlns="http://www.w3.org/2000/svg">
<rect opacity="0.24" width="631.694" height="352.523" rx="45.4479" transform="matrix(0.707107 0.707107 0.707107 -0.707107 -271 249.271)" fill="#6C5CE7"/>
<g style="mix-blend-mode:multiply" opacity="0.24">
<rect width="631.694" height="207.751" rx="45.4479" transform="matrix(0.707107 0.707107 0.707107 -0.707107 -15.2316 196.937)" fill="#FDCB6E"/>
</g>
<g clip-path="url(#clip0)">
<path d="M191.841 152.035C191.841 153.365 192.919 154.443 194.249 154.443C195.579 154.443 196.657 153.365 196.657 152.035C196.657 150.705 195.579 149.627 194.249 149.627C192.919 149.627 191.841 150.705 191.841 152.035Z" fill="#A29BFE"/>
<path d="M199.868 160.062C199.868 161.391 200.946 162.469 202.276 162.469C203.606 162.469 204.684 161.391 204.684 160.062C204.684 158.732 203.606 157.654 202.276 157.654C200.946 157.654 199.868 158.732 199.868 160.062Z" fill="#A29BFE"/>
<path d="M175.788 135.982C175.788 137.312 176.866 138.39 178.196 138.39C179.526 138.39 180.604 137.312 180.604 135.982C180.604 134.652 179.526 133.574 178.196 133.574C176.866 133.574 175.788 134.652 175.788 135.982Z" fill="#A29BFE"/>
<path d="M183.815 144.008C183.815 145.338 184.893 146.416 186.223 146.416C187.553 146.416 188.631 145.338 188.631 144.008C188.631 142.679 187.553 141.6 186.223 141.6C184.893 141.6 183.815 142.679 183.815 144.008Z" fill="#A29BFE"/>
<path d="M175.788 152.035C175.788 153.365 176.866 154.443 178.196 154.443C179.526 154.443 180.604 153.365 180.604 152.035C180.604 150.705 179.526 149.627 178.196 149.627C176.866 149.627 175.788 150.705 175.788 152.035Z" fill="#A29BFE"/>
<path d="M183.815 160.062C183.815 161.391 184.893 162.469 186.223 162.469C187.553 162.469 188.631 161.391 188.631 160.062C188.631 158.732 187.553 157.654 186.223 157.654C184.893 157.654 183.815 158.732 183.815 160.062Z" fill="#A29BFE"/>
<path d="M159.735 119.929C159.735 121.259 160.813 122.337 162.143 122.337C163.473 122.337 164.551 121.259 164.551 119.929C164.551 118.599 163.473 117.521 162.143 117.521C160.813 117.521 159.735 118.599 159.735 119.929Z" fill="#A29BFE"/>
<path d="M167.762 127.955C167.762 129.285 168.84 130.363 170.17 130.363C171.499 130.363 172.577 129.285 172.577 127.955C172.577 126.625 171.499 125.547 170.17 125.547C168.84 125.547 167.762 126.625 167.762 127.955Z" fill="#A29BFE"/>
<path d="M159.735 135.982C159.735 137.312 160.813 138.39 162.143 138.39C163.473 138.39 164.551 137.312 164.551 135.982C164.551 134.652 163.473 133.574 162.143 133.574C160.813 133.574 159.735 134.652 159.735 135.982Z" fill="#A29BFE"/>
<path d="M167.762 144.008C167.762 145.338 168.84 146.416 170.17 146.416C171.499 146.416 172.577 145.338 172.577 144.008C172.577 142.679 171.499 141.6 170.17 141.6C168.84 141.6 167.762 142.679 167.762 144.008Z" fill="#A29BFE"/>
<path d="M159.735 152.035C159.735 153.365 160.813 154.443 162.143 154.443C163.473 154.443 164.551 153.365 164.551 152.035C164.551 150.705 163.473 149.627 162.143 149.627C160.813 149.627 159.735 150.705 159.735 152.035Z" fill="#A29BFE"/>
<path d="M167.762 160.062C167.762 161.391 168.84 162.469 170.17 162.469C171.499 162.469 172.577 161.391 172.577 160.062C172.577 158.732 171.499 157.654 170.17 157.654C168.84 157.654 167.762 158.732 167.762 160.062Z" fill="#A29BFE"/>
<path d="M151.708 127.955C151.708 129.285 152.787 130.363 154.116 130.363C155.446 130.363 156.524 129.285 156.524 127.955C156.524 126.625 155.446 125.547 154.116 125.547C152.787 125.547 151.708 126.625 151.708 127.955Z" fill="#A29BFE"/>
<path d="M143.682 135.982C143.682 137.312 144.76 138.39 146.09 138.39C147.42 138.39 148.498 137.312 148.498 135.982C148.498 134.652 147.42 133.574 146.09 133.574C144.76 133.574 143.682 134.652 143.682 135.982Z" fill="#A29BFE"/>
<path d="M151.708 144.008C151.708 145.338 152.787 146.416 154.116 146.416C155.446 146.416 156.524 145.338 156.524 144.008C156.524 142.679 155.446 141.6 154.116 141.6C152.787 141.6 151.708 142.679 151.708 144.008Z" fill="#A29BFE"/>
<path d="M143.682 152.035C143.682 153.365 144.76 154.443 146.09 154.443C147.42 154.443 148.498 153.365 148.498 152.035C148.498 150.705 147.42 149.627 146.09 149.627C144.76 149.627 143.682 150.705 143.682 152.035Z" fill="#A29BFE"/>
<path d="M151.708 160.062C151.708 161.391 152.787 162.469 154.116 162.469C155.446 162.469 156.524 161.391 156.524 160.062C156.524 158.732 155.446 157.654 154.116 157.654C152.787 157.654 151.708 158.732 151.708 160.062Z" fill="#A29BFE"/>
<path d="M135.655 144.008C135.655 145.338 136.733 146.416 138.063 146.416C139.393 146.416 140.471 145.338 140.471 144.008C140.471 142.679 139.393 141.6 138.063 141.6C136.733 141.6 135.655 142.679 135.655 144.008Z" fill="#A29BFE"/>
<path d="M127.629 152.035C127.629 153.365 128.707 154.443 130.037 154.443C131.367 154.443 132.445 153.365 132.445 152.035C132.445 150.705 131.367 149.627 130.037 149.627C128.707 149.627 127.629 150.705 127.629 152.035Z" fill="#A29BFE"/>
<path d="M135.655 160.062C135.655 161.391 136.733 162.469 138.063 162.469C139.393 162.469 140.471 161.391 140.471 160.062C140.471 158.732 139.393 157.654 138.063 157.654C136.733 157.654 135.655 158.732 135.655 160.062Z" fill="#A29BFE"/>
<path d="M119.602 160.062C119.602 161.391 120.68 162.469 122.01 162.469C123.34 162.469 124.418 161.391 124.418 160.062C124.418 158.732 123.34 157.654 122.01 157.654C120.68 157.654 119.602 158.732 119.602 160.062Z" fill="#A29BFE"/>
</g>
<defs>
<clipPath id="clip0">
<rect width="75.2662" height="102.636" fill="white" transform="translate(204.684 93.4412) rotate(90)"/>
</clipPath>
</defs>
</svg>
