<svg width="53" height="53" viewBox="0 0 53 53" fill="none" xmlns="http://www.w3.org/2000/svg">
<rect width="53" height="53" rx="12" fill="#E84393"/>
<path d="M30.45 22.05C32.1209 22.05 33.7233 22.7137 34.9048 23.8952C36.0862 25.0767 36.75 26.6791 36.75 28.35V35.7H32.55V28.35C32.55 27.793 32.3287 27.2589 31.9349 26.8651C31.5411 26.4712 31.0069 26.25 30.45 26.25C29.893 26.25 29.3589 26.4712 28.9651 26.8651C28.5712 27.2589 28.35 27.793 28.35 28.35V35.7H24.15V28.35C24.15 26.6791 24.8137 25.0767 25.9952 23.8952C27.1767 22.7137 28.7791 22.05 30.45 22.05V22.05Z" stroke="white" stroke-width="2" stroke-linecap="round" stroke-linejoin="round"/>
<path d="M19.95 23.1H15.75V35.7H19.95V23.1Z" stroke="white" stroke-width="2" stroke-linecap="round" stroke-linejoin="round"/>
<path d="M17.85 19.95C19.0098 19.95 19.95 19.0098 19.95 17.85C19.95 16.6902 19.0098 15.75 17.85 15.75C16.6902 15.75 15.75 16.6902 15.75 17.85C15.75 19.0098 16.6902 19.95 17.85 19.95Z" stroke="white" stroke-width="2" stroke-linecap="round" stroke-linejoin="round"/>
</svg>
