<svg width="53" height="53" viewBox="0 0 53 53" fill="none" xmlns="http://www.w3.org/2000/svg">
<rect width="53" height="53" rx="12" fill="#FF7675"/>
<path d="M21 36.75H17.85C17.293 36.75 16.7589 36.5287 16.3651 36.1349C15.9712 35.7411 15.75 35.207 15.75 34.65V27.3C15.75 26.743 15.9712 26.2089 16.3651 25.8151C16.7589 25.4212 17.293 25.2 17.85 25.2H21M28.35 23.1V18.9C28.35 18.0646 28.0181 17.2634 27.4274 16.6726C26.8366 16.0819 26.0354 15.75 25.2 15.75L21 25.2V36.75H32.844C33.3504 36.7557 33.8419 36.5782 34.2278 36.2502C34.6137 35.9222 34.8681 35.4657 34.944 34.965L36.393 25.515C36.4387 25.214 36.4184 24.9067 36.3335 24.6144C36.2486 24.322 36.1012 24.0516 35.9015 23.8219C35.7017 23.5922 35.4544 23.4086 35.1766 23.284C34.8989 23.1593 34.5974 23.0966 34.293 23.1H28.35Z" stroke="white" stroke-width="2.25" stroke-linecap="round" stroke-linejoin="round"/>
</svg>
