<?xml version="1.0" encoding="utf-8"?>
<!-- Generator: Adobe Illustrator 25.1.0, SVG Export Plug-In . SVG Version: 6.00 Build 0)  -->
<svg version="1.1" id="Layer_1" xmlns="http://www.w3.org/2000/svg" xmlns:xlink="http://www.w3.org/1999/xlink" x="0px" y="0px"
	 viewBox="0 0 40 40.3" style="enable-background:new 0 0 40 40.3;" xml:space="preserve">
<style type="text/css">
	.st0{fill:none;stroke:#5C5C5C;stroke-width:2;stroke-linecap:round;stroke-linejoin:round;}
	.st1{fill:none;stroke:#5C5C5C;}
</style>
<g>
	<path class="st0" d="M25,10.2H15c-2.8,0-5,2.2-5,5v10c0,2.8,2.2,5,5,5h10c2.8,0,5-2.2,5-5v-10C30,12.4,27.8,10.2,25,10.2z"/>
	<path class="st0" d="M24,19.5c0.1,0.8,0,1.7-0.4,2.4c-0.4,0.7-1,1.4-1.8,1.7c-0.8,0.4-1.6,0.5-2.4,0.4c-0.8-0.1-1.6-0.5-2.2-1.1
		c-0.6-0.6-1-1.4-1.1-2.2c-0.1-0.8,0-1.7,0.4-2.4c0.4-0.8,1-1.4,1.7-1.8c0.7-0.4,1.6-0.5,2.4-0.4c0.8,0.1,1.6,0.5,2.2,1.1
		C23.5,17.9,23.9,18.7,24,19.5z"/>
	<circle class="st1" cx="26" cy="14.2" r="0.5"/>
</g>
</svg>
