<?xml version="1.0" encoding="utf-8"?>
<!-- Generator: Adobe Illustrator 25.1.0, SVG Export Plug-In . SVG Version: 6.00 Build 0)  -->
<svg version="1.1" id="Layer_1" xmlns="http://www.w3.org/2000/svg" xmlns:xlink="http://www.w3.org/1999/xlink" x="0px" y="0px"
	 viewBox="0 0 40 40.3" style="enable-background:new 0 0 40 40.3;" xml:space="preserve">
<style type="text/css">
	.st0{fill:none;stroke:#5C5C5C;stroke-width:2;stroke-linecap:round;stroke-linejoin:round;}
</style>
<g>
	<path class="st0" d="M24,16.7c1.6,0,3.1,0.6,4.2,1.8c1.1,1.1,1.8,2.7,1.8,4.2v7h-4v-7c0-0.5-0.2-1-0.6-1.4
		c-0.4-0.4-0.9-0.6-1.4-0.6s-1,0.2-1.4,0.6c-0.4,0.4-0.6,0.9-0.6,1.4v7h-4v-7c0-1.6,0.6-3.1,1.8-4.2C20.9,17.3,22.4,16.7,24,16.7
		L24,16.7z"/>
	<path class="st0" d="M14,17.7h-4v12h4V17.7z"/>
	<path class="st0" d="M12,14.7c1.1,0,2-0.9,2-2s-0.9-2-2-2s-2,0.9-2,2S10.9,14.7,12,14.7z"/>
</g>
</svg>
