<?xml version="1.0" encoding="utf-8"?>
<!-- Generator: Adobe Illustrator 25.1.0, SVG Export Plug-In . SVG Version: 6.00 Build 0)  -->
<svg version="1.1" id="Layer_1" xmlns="http://www.w3.org/2000/svg" xmlns:xlink="http://www.w3.org/1999/xlink" x="0px" y="0px"
	 viewBox="0 0 40 40.3" style="enable-background:new 0 0 40 40.3;" xml:space="preserve">
<style type="text/css">
	.st0{fill:none;stroke:#5C5C5C;stroke-width:2;stroke-linecap:round;stroke-linejoin:round;}
</style>
<g>
	<path class="st0" d="M30.5,14.9c-0.1-0.5-0.4-0.9-0.7-1.3c-0.3-0.4-0.8-0.6-1.2-0.7c-1.7-0.4-8.6-0.4-8.6-0.4s-6.9,0-8.6,0.5
		c-0.5,0.1-0.9,0.4-1.2,0.7c-0.3,0.4-0.6,0.8-0.7,1.3C9.1,16.6,9,18.4,9,20.2c0,1.8,0.1,3.6,0.5,5.3c0.1,0.5,0.4,0.9,0.7,1.2
		c0.3,0.3,0.8,0.6,1.2,0.7c1.7,0.5,8.6,0.5,8.6,0.5s6.9,0,8.6-0.5c0.5-0.1,0.9-0.4,1.2-0.7c0.3-0.4,0.6-0.8,0.7-1.3
		c0.3-1.7,0.5-3.5,0.5-5.2C31,18.4,30.9,16.6,30.5,14.9L30.5,14.9z"/>
	<path class="st0" d="M17.8,23.4l5.8-3.3l-5.8-3.3V23.4z"/>
</g>
</svg>
